<?xml version="1.0" standalone="no"?>
<!DOCTYPE svg PUBLIC "-//W3C//DTD SVG 20010904//EN"
 "http://www.w3.org/TR/2001/REC-SVG-20010904/DTD/svg10.dtd">
<svg version="1.0" xmlns="http://www.w3.org/2000/svg"
 width="823.000000pt" height="342.000000pt" viewBox="0 0 823.000000 342.000000"
 preserveAspectRatio="xMidYMid meet">

<g transform="translate(0.000000,342.000000) scale(0.100000,-0.100000)"
fill="#000000" stroke="none">
<path d="M0 1710 l0 -1710 4115 0 4115 0 0 1710 0 1710 -4115 0 -4115 0 0
-1710z m1492 1483 c87 -87 158 -165 158 -173 0 -8 -40 -56 -90 -105 -51 -52
-90 -98 -90 -110 0 -12 67 -86 176 -196 97 -98 175 -182 173 -188 -2 -6 -82
-89 -176 -186 -95 -96 -173 -183 -173 -192 0 -10 41 -59 90 -108 50 -49 90
-97 90 -105 0 -25 -321 -342 -334 -331 -50 42 -326 320 -326 329 0 6 43 53 95
104 52 50 95 99 95 108 0 9 -77 93 -171 186 -94 93 -175 178 -181 188 -10 18
11 41 171 197 117 114 181 184 181 197 0 13 -35 52 -95 107 -52 48 -95 94 -95
102 0 16 318 332 335 333 5 0 81 -71 167 -157z m-1104 -72 c9 -5 12 -29 10
-82 l-3 -74 -112 -5 c-61 -3 -115 -8 -119 -12 -4 -4 2 -29 14 -55 11 -27 44
-102 72 -168 28 -66 62 -142 74 -170 13 -27 49 -108 81 -180 31 -71 68 -154
81 -183 13 -29 36 -80 50 -115 24 -58 40 -93 92 -207 11 -25 50 -112 85 -195
36 -82 79 -181 97 -220 46 -102 56 -124 80 -180 12 -27 28 -63 35 -80 7 -16
39 -88 70 -158 30 -71 83 -185 116 -255 34 -70 70 -146 81 -169 l20 -43 112 0
c129 0 128 -1 166 90 12 30 35 82 50 115 62 136 70 154 70 159 0 3 12 31 26
63 14 32 32 72 39 88 7 17 27 60 44 97 17 37 42 96 57 130 14 35 35 83 46 108
11 25 26 59 33 75 7 17 32 69 54 118 23 48 41 90 41 93 0 7 94 223 136 311 18
40 57 128 85 195 29 68 65 152 81 188 16 36 36 79 43 95 7 17 26 57 40 90 15
33 35 80 45 105 16 40 43 102 86 198 28 61 21 67 -94 70 l-103 3 3 82 3 82
234 3 c133 1 239 -2 244 -7 9 -9 6 -17 -47 -134 -14 -32 -26 -59 -26 -62 0 -2
-15 -36 -34 -77 -30 -65 -43 -94 -91 -203 -7 -16 -27 -64 -45 -105 -18 -41
-45 -103 -61 -137 -16 -34 -29 -64 -29 -67 0 -4 -13 -33 -81 -185 -11 -24 -29
-67 -40 -95 -12 -28 -24 -55 -28 -61 -4 -5 -18 -35 -31 -65 -12 -30 -31 -75
-42 -100 -11 -25 -26 -58 -33 -75 -8 -16 -20 -46 -28 -65 -9 -19 -29 -64 -45
-100 -16 -36 -49 -110 -72 -165 -67 -158 -83 -196 -131 -300 -17 -38 -47 -106
-66 -149 -43 -100 -50 -117 -111 -251 -27 -60 -71 -161 -97 -223 l-47 -112
-242 2 -241 3 -30 61 c-16 34 -36 77 -44 95 -8 19 -27 61 -42 94 -23 51 -159
357 -246 555 -13 30 -28 64 -33 75 -5 11 -44 99 -86 195 -86 198 -110 252
-129 295 -30 68 -108 243 -125 280 -10 22 -30 68 -44 103 -15 35 -42 96 -61
137 -19 41 -35 76 -35 79 0 2 -15 37 -34 78 -18 40 -46 102 -61 138 -15 36
-43 98 -61 138 -19 41 -34 84 -34 96 0 21 27 65 77 127 69 85 136 160 155 173
24 17 114 22 136 7z m3067 -76 l0 -80 -128 -5 c-99 -4 -130 -8 -137 -20 -12
-19 -9 -1065 3 -1077 11 -10 212 -11 223 -1 4 4 -16 47 -43 95 -82 143 -85
150 -67 157 9 3 111 6 227 6 192 -1 214 -2 235 -19 12 -11 22 -26 22 -34 0 -8
7 -20 15 -27 8 -7 15 -23 15 -36 0 -23 -1 -23 -132 -26 -126 -3 -133 -4 -136
-24 -2 -12 18 -56 46 -100 27 -43 60 -99 74 -124 44 -79 133 -233 176 -303 23
-37 42 -69 42 -71 0 -3 16 -32 36 -66 22 -36 43 -60 51 -58 8 2 36 43 61 93
26 49 52 95 59 102 6 7 13 18 15 25 6 17 37 2 48 -24 6 -13 19 -36 29 -53 18
-30 18 -30 -11 -85 -34 -65 -51 -93 -59 -100 -3 -3 -39 -60 -79 -127 -41 -67
-78 -119 -83 -116 -10 6 -43 59 -87 138 -18 33 -42 74 -52 90 -10 17 -21 36
-25 44 -3 8 -35 64 -70 124 -35 60 -63 111 -63 113 0 2 -13 25 -29 51 -16 27
-43 73 -59 103 l-31 55 -174 3 c-174 2 -175 2 -181 -20 -11 -41 -7 -1038 4
-1059 10 -17 22 -19 128 -19 64 0 123 -4 130 -9 9 -5 12 -30 10 -87 l-3 -79
-219 -3 c-169 -2 -221 1 -228 10 -4 7 -8 618 -8 1359 0 1044 3 1348 12 1357 9
9 69 12 228 10 l215 -3 0 -80z m1933 -1288 l2 -1367 -227 2 -228 3 -3 82 c-3
98 -14 92 158 96 l115 2 3 548 2 547 -152 0 c-127 0 -154 -3 -170 -17 -10 -9
-18 -20 -18 -24 0 -5 -18 -38 -40 -74 -22 -36 -40 -68 -40 -70 0 -3 -11 -23
-25 -45 -29 -46 -187 -315 -223 -380 -14 -25 -35 -61 -47 -80 -12 -19 -24 -40
-26 -45 -15 -38 -116 -195 -126 -195 -13 0 -53 62 -115 178 -23 43 -46 84 -52
92 -34 45 -57 102 -51 128 7 32 56 106 69 105 10 -1 110 -169 120 -201 3 -9
15 -22 25 -29 18 -11 23 -6 54 50 19 34 43 78 54 97 11 19 31 55 45 80 14 25
50 88 80 140 49 85 76 133 141 250 10 19 28 50 39 68 28 46 18 64 -34 60 -37
-3 -43 -7 -46 -27 -4 -22 -131 -252 -268 -484 l-52 -89 -60 99 c-33 54 -64
103 -69 108 -4 6 -17 26 -27 45 -11 19 -22 37 -25 40 -4 3 -19 30 -35 60 -16
30 -49 88 -73 128 -29 45 -43 78 -39 89 4 9 1 20 -6 25 -22 13 -88 9 -94 -6
-3 -7 29 -78 70 -158 l75 -143 -25 -53 c-16 -33 -31 -52 -42 -52 -11 0 -44 47
-98 143 -45 78 -112 194 -149 257 -102 175 -104 160 23 160 59 0 113 4 120 9
11 7 8 17 -14 52 -16 24 -31 46 -34 49 -10 10 -31 45 -36 63 -4 9 -10 17 -15
17 -5 0 -9 6 -9 13 0 6 -27 58 -59 114 -40 69 -56 105 -48 110 15 9 1323 10
1333 0 7 -7 -12 -48 -66 -137 -15 -25 -53 -92 -86 -150 -32 -58 -63 -108 -68
-112 -23 -15 11 -23 115 -26 97 -3 109 -6 109 -22 0 -10 7 -21 16 -24 20 -8
122 -8 152 0 l22 6 -2 547 -3 546 -135 5 -135 5 -3 74 c-2 53 1 77 10 83 7 4
110 7 228 5 l215 -2 3 -1368z m1110 1286 l3 -83 -125 0 c-114 0 -126 -2 -136
-19 -5 -11 -10 -84 -10 -166 l0 -147 118 -119 c64 -66 118 -125 120 -132 1 -8
-40 -58 -92 -113 -52 -54 -95 -104 -96 -109 0 -6 79 -89 175 -185 99 -99 175
-183 175 -193 0 -10 -76 -95 -172 -193 -95 -97 -173 -182 -173 -189 0 -8 42
-57 93 -109 52 -53 92 -102 90 -111 -2 -8 -56 -68 -120 -133 l-118 -119 0
-161 c0 -88 3 -167 6 -176 6 -14 84 -16 779 -16 608 0 776 3 782 12 4 7 10 58
13 113 l5 100 74 3 c53 2 77 -1 82 -10 11 -17 11 -369 1 -386 -7 -10 -206 -12
-963 -10 l-954 3 -5 261 c-5 242 -7 264 -25 285 -11 13 -67 73 -124 132 l-105
108 102 102 c56 56 102 107 102 112 0 6 -81 91 -180 190 -99 99 -180 184 -180
190 0 6 81 91 180 190 99 99 180 184 180 190 0 6 -36 46 -81 90 -44 44 -89 92
-100 107 l-19 27 125 124 125 125 0 244 c0 135 3 248 7 252 4 3 104 5 222 4
l216 -3 3 -82z"/>
<path d="M1285 3069 c-19 -17 -35 -39 -35 -49 0 -10 16 -32 37 -49 l36 -30 29
20 c51 37 55 58 19 102 -32 38 -48 39 -86 6z"/>
<path d="M1219 2573 c-55 -54 -110 -111 -121 -126 l-21 -29 109 -110 c60 -60
117 -114 127 -119 14 -8 35 7 118 88 55 54 110 110 121 126 l20 27 -99 101
c-54 55 -110 110 -125 120 l-28 20 -101 -98z"/>
<path d="M1287 1879 c-20 -17 -37 -38 -37 -48 0 -16 58 -81 73 -81 12 0 77 62
77 75 0 12 -21 38 -56 67 -19 17 -22 16 -57 -13z"/>
<path d="M3924 2186 c-4 -12 48 -111 66 -126 4 -3 10 -14 14 -25 6 -14 10 -16
13 -7 3 8 0 24 -7 37 -7 13 -10 31 -7 39 6 14 44 16 311 16 167 0 311 -3 320
-6 16 -6 8 -23 -70 -152 -18 -31 -34 -63 -34 -69 0 -7 -3 -13 -8 -13 -4 0 -16
-17 -27 -37 -11 -21 -32 -57 -47 -79 -16 -23 -28 -44 -28 -48 0 -16 -94 -156
-105 -156 -13 0 -75 91 -75 110 0 5 22 47 48 93 27 47 52 91 56 98 3 8 15 28
25 44 24 37 26 61 5 69 -9 3 -83 6 -165 6 -124 0 -151 3 -155 15 -4 8 -10 15
-15 15 -13 0 -11 -37 1 -45 6 -4 10 -14 8 -23 -6 -38 9 -42 143 -42 120 0 129
-1 129 -19 0 -10 -7 -24 -15 -31 -8 -7 -15 -18 -15 -24 -1 -30 -42 -59 -90
-64 -28 -2 -50 -8 -50 -13 0 -4 20 -37 45 -73 25 -37 45 -69 45 -71 0 -10 84
-140 95 -147 18 -14 24 -9 62 60 51 92 102 173 125 199 21 22 17 43 -8 43 -23
0 -16 36 17 90 26 42 36 50 61 50 41 0 68 17 68 42 0 12 24 64 53 117 66 119
70 128 51 135 -9 3 -200 6 -425 6 -340 0 -411 -2 -415 -14z"/>
<path d="M6094 2416 c-19 -19 -34 -38 -34 -44 0 -5 18 -26 41 -47 l41 -37 39
38 c21 21 39 41 39 46 0 15 -62 78 -77 78 -8 0 -30 -15 -49 -34z"/>
<path d="M6119 2001 c-61 -47 -219 -208 -219 -221 0 -16 210 -234 234 -243 15
-6 246 221 246 242 0 11 -101 114 -221 226 -14 14 -19 13 -40 -4z"/>
<path d="M6092 1219 c-18 -17 -32 -35 -32 -39 0 -15 51 -69 71 -75 14 -5 29 1
46 17 47 43 48 57 12 94 -41 42 -57 42 -97 3z"/>
</g>
</svg>
