<?xml version="1.0" standalone="no"?>
<!DOCTYPE svg PUBLIC "-//W3C//DTD SVG 20010904//EN"
 "http://www.w3.org/TR/2001/REC-SVG-20010904/DTD/svg10.dtd">
<svg version="1.0" xmlns="http://www.w3.org/2000/svg"
 width="474.000000pt" height="249.000000pt" viewBox="0 0 474.000000 249.000000"
 preserveAspectRatio="xMidYMid meet">

<g transform="translate(0.000000,249.000000) scale(0.100000,-0.100000)"
fill="#000000" stroke="none">
<path d="M0 1245 l0 -1245 2370 0 2370 0 0 1245 0 1245 -2370 0 -2370 0 0
-1245z m1405 835 l-39 -40 67 -68 c37 -37 67 -72 67 -77 0 -5 -30 -40 -67 -77
l-67 -68 39 -40 39 -40 -64 -65 -65 -65 -65 65 -64 65 39 40 39 40 -72 73 -72
72 72 72 72 73 -39 40 -39 40 64 65 65 65 65 -65 64 -65 -39 -40z m-445 50 c0
-29 -2 -30 -46 -30 -33 0 -45 -4 -41 -12 8 -19 351 -794 377 -851 l21 -48 46
3 46 3 84 190 c212 483 303 694 303 704 0 6 -18 11 -40 11 -38 0 -40 2 -40 30
l0 30 96 0 c73 0 95 -3 91 -12 -3 -7 -101 -229 -217 -493 -116 -264 -216 -492
-222 -507 -10 -28 -11 -28 -98 -28 -58 0 -91 4 -97 13 -10 12 -25 44 -154 337
-39 91 -112 255 -160 365 -49 109 -89 203 -89 209 0 5 19 33 41 63 33 42 47
53 70 53 26 0 29 -4 29 -30z m1170 0 c0 -30 -1 -30 -55 -30 l-55 0 0 -210 0
-210 45 0 45 0 -25 50 -25 50 89 0 c79 0 92 -2 101 -19 15 -30 14 -31 -40 -31
-27 0 -50 -5 -50 -10 0 -12 153 -279 160 -280 3 0 16 20 29 45 13 25 27 45 31
45 4 0 12 -11 18 -24 9 -20 4 -33 -32 -94 -23 -40 -45 -74 -47 -77 -3 -2 -41
58 -85 135 l-79 140 -67 0 -68 0 0 -210 0 -210 56 0 55 0 -3 -32 -3 -33 -87
-3 -88 -3 0 521 0 520 90 0 90 0 0 -30z m730 -490 l0 -521 -87 3 -88 3 -3 33
-3 32 55 0 56 0 0 210 0 210 -59 0 -59 0 -102 -175 c-56 -96 -106 -175 -110
-175 -10 0 -80 126 -80 143 0 7 6 21 13 31 12 16 15 14 38 -28 13 -25 27 -46
30 -46 7 0 159 263 159 274 0 3 -9 6 -20 6 -11 0 -19 -3 -18 -7 4 -13 -113
-214 -121 -208 -12 7 -121 192 -121 204 0 6 -9 11 -20 11 -26 0 -25 -1 9 -62
24 -42 27 -55 19 -74 -6 -13 -14 -24 -17 -24 -7 0 -114 187 -119 207 -3 9 10
13 42 13 l45 0 -46 75 c-26 41 -44 77 -41 80 3 3 118 4 256 3 l251 -3 -43 -75
-44 -75 44 -3 c24 -2 44 -7 44 -13 0 -5 16 -9 35 -9 l35 0 0 210 0 210 -55 0
c-54 0 -55 0 -55 30 l0 30 90 0 90 0 0 -520z m420 490 c0 -29 -1 -30 -50 -30
l-50 0 0 -65 c0 -63 1 -66 45 -112 l46 -47 -41 -40 -40 -41 72 -72 72 -73 -72
-73 -72 -72 41 -42 42 -41 -47 -50 c-45 -48 -46 -50 -46 -116 l0 -66 294 0
295 0 3 43 c3 39 5 42 36 45 l32 3 0 -80 0 -81 -365 0 -365 0 0 102 0 102 -50
51 -50 51 40 39 40 39 -72 74 -73 73 74 71 73 70 -41 42 -41 42 50 49 50 49 0
93 0 93 85 0 85 0 0 -30z m-1500 -1332 c24 -13 45 -27 46 -33 2 -5 -11 -21
-27 -34 -29 -22 -30 -23 -65 -6 -29 14 -41 15 -64 5 -56 -23 -58 -114 -3 -139
40 -18 61 -6 65 37 3 36 4 37 46 40 l42 3 0 -69 c0 -65 -1 -69 -27 -81 -16 -7
-53 -15 -83 -18 -44 -4 -64 0 -99 19 -65 34 -86 67 -86 138 0 43 5 66 21 87
27 38 99 73 149 73 23 0 60 -10 85 -22z m462 -39 l31 -51 31 51 c30 50 32 51
79 51 55 0 56 11 -17 -113 -40 -67 -46 -85 -46 -132 l0 -55 -50 0 -50 0 0 52
c0 45 -7 64 -55 144 -30 51 -55 95 -55 98 0 3 23 6 50 6 50 0 51 -1 82 -51z
m608 -24 c25 -41 48 -75 52 -75 4 0 27 34 50 75 43 75 43 75 86 75 l42 0 0
-150 0 -150 -45 0 -44 0 -3 67 -3 67 -28 -52 c-23 -43 -33 -52 -55 -52 -21 0
-33 10 -57 48 l-30 47 -3 -62 -3 -63 -44 0 -45 0 0 150 0 150 43 0 c42 0 42 0
87 -75z"/>
<path d="M1293 2134 c-3 -8 1 -22 9 -30 13 -13 16 -13 28 0 10 13 10 19 0 31
-16 19 -29 19 -37 -1z"/>
<path d="M1267 1942 l-47 -48 48 -47 48 -47 47 48 47 48 -48 47 -48 47 -47
-48z"/>
<path d="M1300 1686 c-10 -13 -10 -19 0 -32 12 -14 15 -14 29 0 14 15 14 17 0
32 -14 14 -17 14 -29 0z"/>
<path d="M2300 1805 c0 -3 12 -27 28 -55 26 -49 28 -50 75 -50 26 0 47 -3 47
-8 0 -16 -32 -52 -46 -52 -11 0 -7 -13 16 -52 16 -29 34 -54 39 -56 11 -4 65
87 63 108 -1 25 20 60 37 60 13 1 61 81 61 103 0 4 -72 7 -160 7 -88 0 -160
-2 -160 -5z m268 -47 c-8 -13 -37 -60 -63 -105 -26 -46 -51 -83 -56 -83 -5 0
-13 9 -19 20 -8 16 -4 30 20 73 16 30 27 57 23 60 -3 4 -32 7 -64 7 -47 0 -60
4 -69 19 -5 11 -10 22 -10 25 0 3 57 6 126 6 l126 0 -14 -22z"/>
<path d="M3127 1892 c-13 -14 -14 -21 -5 -30 7 -7 17 -12 24 -12 19 0 26 32
11 47 -11 11 -16 11 -30 -5z"/>
<path d="M3090 1695 l-44 -45 47 -48 47 -47 47 47 47 48 -44 45 c-24 25 -47
45 -50 45 -3 0 -26 -20 -50 -45z"/>
<path d="M3121 1437 c-8 -11 -6 -18 8 -31 16 -15 19 -15 31 -1 10 12 10 18 0
30 -15 19 -24 19 -39 2z"/>
</g>
</svg>
